<svg width="983" height="983" viewBox="0 0 983 983" fill="none" xmlns="http://www.w3.org/2000/svg">
<path d="M455.879 14.6447C475.405 -4.88155 507.064 -4.88155 526.59 14.6447L593.221 81.2755L382.991 286.755C363.243 306.057 362.881 337.713 382.183 357.461L411.54 387.497C430.842 407.245 462.498 407.607 482.246 388.305L693.637 181.692L967.824 455.879C987.351 475.405 987.351 507.064 967.824 526.59L526.59 967.824C507.064 987.351 475.405 987.351 455.879 967.824L388.763 900.708L579.342 714.438C599.09 695.136 599.452 663.48 580.151 643.732L518.073 580.219C498.772 560.471 467.115 560.109 447.367 579.41L255.244 767.19L14.6447 526.59C-4.88155 507.064 -4.88155 475.405 14.6447 455.879L455.879 14.6447Z" fill="white"/>
</svg>
